<svg width="60" height="60" fill="none" xmlns="http://www.w3.org/2000/svg"><g opacity=".8" fill="#11AFB6" fill-opacity=".5"><path opacity=".8" d="M29.505 31.963l-.193.091.064.055.13-.146z"/><path opacity=".8" d="M50.516 10.394C44.71 6.998 37.076 4.947 28.731 5 20.817 5.056 13.591 6.998 8 10.158l21.312 21.896.193-.072 21.011-21.588z"/></g><path d="M29.2 39.4a9.2 9.2 0 100-18.4 9.2 9.2 0 000 18.4z" fill="#B8E7E9"/><path d="M29.2 38a8 8 0 100-16 8 8 0 000 16z" fill="#05868E"/><path stroke="#364152" stroke-opacity=".8" d="M29.5 19v6M28.5 19v6"/></svg>