<svg width="101" height="59" viewBox="0 0 101 59" fill="none" xmlns="http://www.w3.org/2000/svg">
<path d="M97.444 43.8206L56.184 2.56063C54.5432 0.921025 52.3186 0 49.999 0C47.6794 0 45.4547 0.921025 43.814 2.56063L2.56398 43.8006C0.922292 45.4423 -2.44631e-08 47.6689 0 49.9906C2.44631e-08 52.3123 0.922292 54.5389 2.56398 56.1806C4.20567 57.8223 6.43228 58.7446 8.75398 58.7446C11.0757 58.7446 13.3023 57.8223 14.944 56.1806L49.944 21.1806L85.054 56.2006C85.8669 57.0142 86.832 57.6596 87.8944 58.1002C88.9567 58.5407 90.0954 58.7677 91.2454 58.7682C92.3955 58.7686 93.5344 58.5426 94.5971 58.1029C95.6598 57.6632 96.6254 57.0185 97.439 56.2056C98.2525 55.3928 98.898 54.4276 99.3385 53.3653C99.7791 52.3029 100.006 51.1642 100.007 50.0142C100.007 48.8641 99.7809 47.7252 99.3412 46.6625C98.9015 45.5999 98.2569 44.6342 97.444 43.8206V43.8206Z" fill="white"/>
</svg>
