<svg width="100" height="85" viewBox="0 0 100 85" fill="none" xmlns="http://www.w3.org/2000/svg">
<path d="M65.4129 0C55.9429 0 46.8029 5.39 40.1529 16.07C33.4129 27 29.3029 43.18 28.3729 65L9.94286 46.59C8.83536 45.5229 7.35332 44.9331 5.81545 44.9474C4.27759 44.9617 2.80676 45.5789 1.71928 46.6664C0.631804 47.7539 0.0145447 49.2247 0.000253761 50.7626C-0.0140372 52.3004 0.575782 53.7825 1.64286 54.89L29.3829 82.61C30.4849 83.708 31.9772 84.3244 33.5329 84.3244C35.0885 84.3244 36.5808 83.708 37.6829 82.61L65.4129 55C65.9592 54.4537 66.3925 53.8052 66.6882 53.0914C66.9838 52.3776 67.136 51.6126 67.136 50.84C67.136 50.0674 66.9838 49.3024 66.6882 48.5886C66.3925 47.8748 65.9592 47.2263 65.4129 46.68C64.8666 46.1337 64.218 45.7004 63.5042 45.4047C62.7905 45.109 62.0254 44.9569 61.2529 44.9569C60.4803 44.9569 59.7153 45.109 59.0015 45.4047C58.2877 45.7004 57.6392 46.1337 57.0929 46.68L39.2629 64.47C40.1829 44.91 43.7629 30.77 49.3729 21.75C54.0929 14.13 59.8229 10.75 65.4729 10.75C68.4248 10.6518 71.3496 11.341 73.9471 12.747C76.5445 14.1529 78.7209 16.2248 80.2529 18.75C85.9429 27 89.1529 41.85 89.1529 64.47C89.1529 65.9008 89.7213 67.2731 90.733 68.2848C91.7448 69.2966 93.117 69.865 94.5479 69.865C95.9787 69.865 97.3509 69.2966 98.3627 68.2848C99.3745 67.2731 99.9429 65.9008 99.9429 64.47C99.9929 18.78 87.1629 0 65.4129 0Z" fill="white"/>
</svg>
