<svg width="102" height="106" viewBox="0 0 102 106" fill="none" xmlns="http://www.w3.org/2000/svg">
<path d="M100.121 75C98.9214 63.91 95.1005 56.6424 89.6105 50.0424C79.0405 37.4224 60.3405 32.7624 24.4605 32.4324L44.9305 11.9724C46.2473 10.6609 46.9892 8.88007 46.993 7.02158C46.9967 5.1631 46.262 3.37924 44.9505 2.06244C43.639 0.745643 41.8581 0.00376502 39.9997 1.42909e-05C38.1412 -0.00373644 36.3573 0.730947 35.0405 2.04244L2.04052 35.0424C0.733722 36.3544 0 38.1307 0 39.9824C0 41.8342 0.733722 43.6105 2.04052 44.9224L35.0405 77.8924C35.6906 78.5425 36.4623 79.0581 37.3116 79.4099C38.1609 79.7617 39.0712 79.9428 39.9905 79.9428C40.9098 79.9428 41.8201 79.7617 42.6694 79.4099C43.5188 79.0581 44.2905 78.5425 44.9405 77.8924C45.5906 77.2424 46.1062 76.4707 46.458 75.6214C46.8098 74.772 46.9909 73.8617 46.9909 72.9424C46.9909 72.0231 46.8098 71.1128 46.458 70.2635C46.1062 69.4142 45.5906 68.6425 44.9405 67.9924L24.8305 47.9324C56.0405 48.2224 71.0405 51.9724 77.7605 60.0424C80.9705 63.9224 83.57 67.6924 84.5 76.0424C85.35 83.6324 85.7827 80.0723 85.2527 97.2123C85.1784 98.2523 85.315 99.2966 85.6543 100.282C85.9936 101.268 86.5286 102.176 87.2272 102.95C87.9258 103.724 88.7736 104.349 89.7197 104.787C90.6658 105.225 91.6907 105.468 92.7328 105.5C93.775 105.532 94.8129 105.354 95.7844 104.975C96.7558 104.596 97.6408 104.025 98.386 103.296C99.1313 102.567 99.7216 101.695 100.121 100.732C100.521 99.7687 100.722 98.7349 100.713 97.6923C101.273 79.8023 101.081 83.6 100.121 75Z" fill="white"/>
</svg>
