<svg version="1.1" id="Calque_1" xmlns="http://www.w3.org/2000/svg" x="0" y="0" viewBox="0 0 137 38" xml:space="preserve"><style>.st0{fill:#1a1f2e}</style><switch><g><path class="st0" d="M13.6 26.4h-1.1V14.3h1.1v12.1zM27.6 26.4V18c0-.4 0-1.1.1-2.1-.1.3-.2.5-.2.7-.1.2-.1.3-.2.5L23 26.4h-.5l-4.2-9.3c-.1-.3-.3-.7-.4-1.2v10.5h-1.1V14.3h1.3l4.1 9.1.3.6c.1.2.2.4.2.6h.1c.1-.2.2-.4.2-.6.1-.2.1-.4.2-.6l4.2-9.1h1.3v12.2h-1.1zM42.6 26.4V18c0-.4 0-1.1.1-2.1-.1.3-.2.5-.2.7-.1.2-.1.3-.2.5L38 26.4h-.5l-4.2-9.3c-.1-.3-.3-.7-.4-1.2v10.5h-1.1V14.3h1.3l4.1 9.1.3.6c.1.2.2.4.2.6h.1c.1-.2.2-.4.2-.6.1-.2.1-.4.2-.6l4.2-9.1h1.3v12.2h-1.1zM46.8 26.4V14.3h5.9v1H48v4.5h4.4v1H48v4.6h5v1h-6.2zM62.2 26.4l-1.8-3.5c-.2-.3-.4-.6-.5-.9-.2-.2-.3-.4-.5-.6l-.6-.3c-.2-.1-.4-.1-.7-.1h-1.3v5.3h-1.1v-12h3.5c.5 0 .9.1 1.3.2s.8.3 1.1.6c.3.3.6.6.8 1 .2.4.3.9.3 1.4 0 .4-.1.8-.2 1.2-.1.4-.3.7-.6 1-.2.3-.5.5-.9.7-.3.2-.7.3-1.2.4.2.1.3.2.4.3.1.1.3.2.4.4.1.2.3.3.4.5.1.2.3.4.4.7l2 3.8h-1.2zm-5.5-11.1v4.8h2c.4 0 .8-.1 1.1-.2.3-.1.6-.3.9-.5.2-.2.4-.5.6-.8.1-.3.2-.7.2-1.1 0-.7-.2-1.3-.7-1.7-.5-.4-1.1-.6-2-.6h-2.1zM74.3 25.6c-1.2.7-2.6 1.1-4 1.1-.9 0-1.7-.2-2.4-.5s-1.3-.7-1.8-1.3c-.5-.5-.9-1.2-1.1-1.9-.3-.7-.4-1.6-.4-2.5 0-.6.1-1.2.2-1.7s.3-1.1.6-1.5c.2-.5.5-.9.9-1.3s.8-.7 1.2-1c.5-.3 1-.5 1.5-.7.6-.2 1.2-.2 1.8-.2 1.2 0 2.3.2 3.2.6V16c-1-.6-2.2-.9-3.4-.9-.7 0-1.4.1-2 .4-.6.3-1.1.6-1.5 1.1-.4.5-.7 1-1 1.7-.2.6-.4 1.3-.4 2.1s.1 1.4.3 2.1c.2.6.5 1.2.9 1.6.4.5.9.8 1.5 1.1.6.3 1.3.4 2 .4 1 0 1.9-.2 2.7-.6v-3.7h-2.8v-1h3.9v5.3zM78.2 26.4h-1.1V14.3h1.1v12.1zM80.9 24.6c.2.2.4.3.7.4.2.1.5.2.8.3.3.1.5.1.8.2.3 0 .5.1.7.1.9 0 1.6-.2 2.1-.5.5-.4.7-.9.7-1.5 0-.3-.1-.6-.2-.8-.1-.2-.3-.5-.5-.7-.2-.2-.5-.4-.9-.6s-.8-.4-1.2-.7c-.5-.3-1-.5-1.3-.8-.4-.3-.7-.5-.9-.8-.2-.3-.4-.5-.5-.9-.1-.3-.2-.7-.2-1 0-.5.1-.9.3-1.3.2-.4.5-.7.8-1 .4-.3.8-.5 1.2-.6.5-.1 1-.2 1.5-.2 1 0 1.8.1 2.4.4v1.2c-.7-.4-1.6-.6-2.5-.6-.4 0-.7 0-1 .1-.3.1-.6.2-.8.4l-.6.6c-.1.3-.2.5-.2.9 0 .3 0 .6.1.8.1.2.2.4.4.6.2.2.5.4.8.6.3.2.7.4 1.2.7.5.3 1 .5 1.3.8.4.3.7.5.9.8.3.3.4.6.6.9.1.3.2.7.2 1 0 .5-.1 1-.3 1.4-.2.4-.5.7-.8 1-.4.3-.8.5-1.3.6-.5.1-1 .2-1.6.2h-.7c-.3 0-.5-.1-.8-.1-.3-.1-.5-.1-.8-.2l-.6-.3v-1.4zM100.3 26.4h-3.1l-1.9-3.1c-.1-.2-.3-.4-.4-.6-.1-.2-.3-.3-.4-.5-.1-.1-.3-.2-.4-.3-.1-.1-.3-.1-.5-.1h-.7v4.7h-2.7V14.3h4.3c2.9 0 4.4 1.1 4.4 3.3 0 .4-.1.8-.2 1.2s-.3.7-.6 1c-.2.3-.5.5-.9.7-.3.2-.7.4-1.1.5.2.1.4.1.5.3.2.1.3.3.5.4s.3.4.5.5.3.4.4.6l2.3 3.6zm-7.5-10.1v3.4H94c.6 0 1.1-.2 1.4-.5.4-.3.5-.8.5-1.3 0-1.1-.6-1.6-1.9-1.6h-1.2zM104.9 26.6c-1.4 0-2.6-.4-3.4-1.2-.8-.8-1.2-1.9-1.2-3.3s.4-2.6 1.3-3.4c.9-.8 2-1.2 3.5-1.2 1.4 0 2.6.4 3.4 1.2.8.8 1.2 1.9 1.2 3.2 0 1.4-.4 2.6-1.3 3.4-.9.9-2.1 1.3-3.5 1.3zm0-7c-.6 0-1.1.2-1.5.7-.4.4-.5 1.1-.5 1.8 0 1.7.7 2.5 2 2.5s1.9-.9 1.9-2.6c.1-1.6-.6-2.4-1.9-2.4zM118.4 26.4h-2.5v-1.2c-.6 1-1.4 1.5-2.6 1.5-.8 0-1.5-.2-2-.7-.5-.5-.7-1.1-.7-1.9 0-1.7 1-2.7 3-2.9l2.4-.3c0-.9-.5-1.4-1.5-1.4s-2 .3-2.9.9v-2c.4-.2.9-.4 1.5-.5.6-.1 1.2-.2 1.8-.2 2.5 0 3.7 1.2 3.7 3.7v5zm-2.5-3.5v-.6l-1.6.2c-.9.1-1.3.5-1.3 1.2 0 .3.1.6.3.7s.5.3.9.3c.5 0 .9-.2 1.2-.5.3-.3.5-.8.5-1.3zM129 26.4h-2.7v-1.2c-.6.9-1.5 1.4-2.7 1.4-1.1 0-2-.4-2.6-1.1-.7-.8-1-1.8-1-3.2 0-1.4.4-2.6 1.1-3.4.7-.9 1.7-1.3 2.9-1.3 1.1 0 1.9.4 2.3 1.2v-5.2h2.7v12.8zm-2.6-4.2v-.7c0-.6-.2-1-.5-1.4-.3-.4-.8-.6-1.3-.6-.6 0-1.1.2-1.4.7-.3.5-.5 1.1-.5 1.9 0 .8.2 1.4.5 1.8.3.4.8.6 1.3.6s1-.2 1.3-.7c.4-.3.6-.9.6-1.6z"/></g></switch></svg>