<svg width="60" height="60" viewBox="0 0 60 60" fill="none" xmlns="http://www.w3.org/2000/svg">
<path d="M29.2 39.2C34.281 39.2 38.4 35.081 38.4 30C38.4 24.919 34.281 20.8 29.2 20.8C24.119 20.8 20 24.919 20 30C20 35.081 24.119 39.2 29.2 39.2Z" fill="#B8E7E9"/>
<g opacity="0.8">
<path opacity="0.8" d="M29.5053 31.9367L29.3118 32.0442L29.3763 32.1088L29.5053 31.9367Z" fill="#11AFB6" fill-opacity="0.5"/>
<path opacity="0.8" d="M50.5161 6.38835C44.7097 2.36684 37.0753 -0.0632628 28.7312 0.00125335C20.8172 0.0657695 13.5914 2.36684 8 6.10878L29.3118 32.0443L29.5054 31.9582L50.5161 6.38835V6.38835Z" fill="#11AFB6" fill-opacity="0.5"/>
</g>
<path d="M29.2 38C33.6182 38 37.2 34.4183 37.2 30C37.2 25.5817 33.6182 22 29.2 22C24.7817 22 21.2 25.5817 21.2 30C21.2 34.4183 24.7817 38 29.2 38Z" fill="#05868E"/>
</svg>
