<svg width="60" height="60" viewBox="0 0 60 60" fill="none" xmlns="http://www.w3.org/2000/svg">
<path d="M24.9999 32.6667C29.2341 32.6667 32.6666 29.2342 32.6666 25C32.6666 20.7658 29.2341 17.3333 24.9999 17.3333C20.7657 17.3333 17.3333 20.7658 17.3333 25C17.3333 29.2342 20.7657 32.6667 24.9999 32.6667Z" fill="#88D7DB"/>
<path d="M24.9999 31.6666C28.6818 31.6666 31.6666 28.6819 31.6666 25C31.6666 21.3181 28.6818 18.3333 24.9999 18.3333C21.318 18.3333 18.3333 21.3181 18.3333 25C18.3333 28.6819 21.318 31.6666 24.9999 31.6666Z" fill="#11AFB6"/>
<g opacity="0.8">
<path opacity="0.8" d="M25.2543 26.614L25.093 26.7036L25.1468 26.7573L25.2543 26.614Z" fill="#11AFB6" fill-opacity="0.5"/>
<path opacity="0.8" d="M42.7634 5.32363C37.9247 1.97237 31.5626 -0.052719 24.6092 0.00104446C18.0143 0.0548079 11.9928 1.97237 7.33325 5.09065L25.0931 26.7036L25.2544 26.6319L42.7634 5.32363V5.32363Z" fill="#11AFB6" fill-opacity="0.5"/>
</g>
</svg>
